<svg xmlns="http://www.w3.org/2000/svg" aria-hidden="true" role="img" class="iconify iconify--logos" width="31.88" height="32" preserveAspectRatio="xMidYMid meet" viewBox="0 0 256 256">
  <path fill="#4A90E2" d="M204 0H52C23.2 0 0 23.2 0 52v152c0 28.8 23.2 52 52 52h152c28.8 0 52-23.2 52-52V52c0-28.8-23.2-52-52-52zm20 204c0 11-9 20-20 20H52c-11 0-20-9-20-20V52c0-11 9-20 20-20h152c11 0 20 9 20 20v152z"/>
  <path fill="#50E3C2" d="M76 164h104c3 0 5 2 5 5v18c0 3-2 5-5 5H76c-3 0-5-2-5-5v-18c0-3 2-5 5-5zm0-38h104c3 0 5 2 5 5v18c0 3-2 5-5 5H76c-3 0-5-2-5-5v-18c0-3 2-5 5-5zm0-38h104c3 0 5 2 5 5v18c0 3-2 5-5 5H76c-3 0-5-2-5-5v-18c0-3 2-5 5-5zm0-38h104c3 0 5 2 5 5v18c0 3-2 5-5 5H76c-3 0-5-2-5-5v-18c0-3 2-5 5-5z"/>
</svg>
